<?xml version="1.0" encoding="UTF-8"?>
<svg id="Layer_1" data-name="Layer 1" xmlns="http://www.w3.org/2000/svg" viewBox="0 0 831 387">
  <defs>
    <style>
      .cls-1 {
        font-size: 200px;
      }

      .cls-1, .cls-2 {
        fill: #1a1a1a;
        font-family: Gugi-Regular, Gugi;
      }

      .cls-3 {
        fill: #324681;
      }

      .cls-2 {
        font-size: 165px;
      }

      .cls-4 {
        fill: #d7000f;
      }
    </style>
  </defs>
  <text class="cls-1" transform="translate(290.96 189.86)"><tspan x="0" y="0">PAGE</tspan></text>
  <text class="cls-2" transform="translate(290.92 349.86)"><tspan x="0" y="0">CRAFT</tspan></text>
  <g id="P-Logo">
    <circle class="cls-4" cx="78.44" cy="69.86" r="50"/>
    <rect class="cls-3" x="28.44" y="138.86" width="106" height="106" rx="15" ry="15"/>
    <path class="cls-3" d="M164.07,118.86h81.58c5.27,0,9.56-4.24,9.62-9.51,.17-14.11-2.73-40.61-23.83-62.49-23.22-24.07-52.91-26.41-67.81-25.81-5.14,.21-9.19,4.47-9.19,9.61V109.23c0,5.31,4.31,9.62,9.62,9.62Z"/>
    <path class="cls-3" d="M155.44,151.48v81.58c0,5.27,4.24,9.56,9.51,9.62,14.11,.17,40.61-2.73,62.49-23.83,24.07-23.22,26.41-52.91,25.81-67.81-.21-5.14-4.47-9.19-9.61-9.19h-78.58c-5.31,0-9.62,4.31-9.62,9.62Z"/>
    <path class="cls-3" d="M122.18,265.33H40.6c-5.27,0-9.56,4.24-9.62,9.51-.17,14.11,2.73,40.61,23.83,62.49,23.22,24.07,52.91,26.41,67.81,25.81,5.14-.21,9.19-4.47,9.19-9.61v-78.58c0-5.31-4.31-9.62-9.62-9.62Z"/>
  </g>
</svg>